<svg xmlns="http://www.w3.org/2000/svg" viewBox="0 0 512 512" width="512" height="512">
  <!-- Blade Runner 2049 inspired PWA icon -->
  <defs>
    <radialGradient id="bgGrad" cx="50%" cy="50%" r="70%">
      <stop offset="0%" style="stop-color:#0a0a0a;stop-opacity:1" />
      <stop offset="100%" style="stop-color:#000000;stop-opacity:1" />
    </radialGradient>
    <filter id="glow" x="-50%" y="-50%" width="200%" height="200%">
      <feGaussianBlur stdDeviation="3" result="coloredBlur"/>
      <feMerge> 
        <feMergeNode in="coloredBlur"/>
        <feMergeNode in="SourceGraphic"/>
      </feMerge>
    </filter>
  </defs>
  
  <!-- Background with subtle gradient -->
  <rect width="512" height="512" fill="url(#bgGrad)"/>
  
  <!-- Main geometric design centered -->
  <g transform="translate(256,256)">
    
    <!-- Outer hexagonal frame -->
    <g fill="none" stroke="#ffffff" stroke-width="4" opacity="0.7">
      <polygon points="-100,0 -50,-86.6 50,-86.6 100,0 50,86.6 -50,86.6"/>
    </g>
    
    <!-- Inner hexagonal grid -->
    <g fill="none" stroke="#00ffff" stroke-width="2.5" opacity="0.9" filter="url(#glow)">
      <!-- Central hexagon -->
      <polygon points="-60,0 -30,-51.9 30,-51.9 60,0 30,51.9 -30,51.9"/>
      
      <!-- Inner diamond -->
      <polygon points="0,-40 40,0 0,40 -40,0"/>
      
      <!-- Connection nodes -->
      <circle cx="-75" cy="-43.3" r="3" fill="#00ffff"/>
      <circle cx="75" cy="-43.3" r="3" fill="#00ffff"/>
      <circle cx="-75" cy="43.3" r="3" fill="#00ffff"/>
      <circle cx="75" cy="43.3" r="3" fill="#00ffff"/>
      <circle cx="0" cy="-86.6" r="3" fill="#00ffff"/>
      <circle cx="0" cy="86.6" r="3" fill="#00ffff"/>
      
      <!-- Data flow lines -->
      <line x1="-70" y1="-40" x2="-45" y2="-26"/>
      <line x1="70" y1="-40" x2="45" y2="-26"/>
      <line x1="-70" y1="40" x2="-45" y2="26"/>
      <line x1="70" y1="40" x2="45" y2="26"/>
      <line x1="0" y1="-80" x2="0" y2="-55"/>
      <line x1="0" y1="80" x2="0" y2="55"/>
    </g>
    
    <!-- Central processing core -->
    <g fill="#ffffff" opacity="0.8">
      <circle cx="0" cy="0" r="12"/>
    </g>
    <g fill="#00ffff" opacity="0.9" filter="url(#glow)">
      <circle cx="0" cy="0" r="8"/>
    </g>
    
    <!-- Corner frame elements -->
    <g fill="none" stroke="#ffffff" stroke-width="2" opacity="0.4">
      <!-- Top-left -->
      <path d="M -180 -180 L -140 -180 M -180 -180 L -180 -140"/>
      <!-- Top-right -->
      <path d="M 180 -180 L 140 -180 M 180 -180 L 180 -140"/>
      <!-- Bottom-left -->
      <path d="M -180 180 L -140 180 M -180 180 L -180 140"/>
      <!-- Bottom-right -->
      <path d="M 180 180 L 140 180 M 180 180 L 180 140"/>
    </g>
    
    <!-- Data stream indicators -->
    <g fill="none" stroke="#ffffff" stroke-width="1.5" opacity="0.3">
      <!-- Horizontal streams -->
      <line x1="-200" y1="0" x2="-120" y2="0"/>
      <line x1="120" y1="0" x2="200" y2="0"/>
      <!-- Vertical streams -->
      <line x1="0" y1="-200" x2="0" y2="-120"/>
      <line x1="0" y1="120" x2="0" y2="200"/>
    </g>
    
    <!-- Status dots -->
    <g fill="#ffffff" opacity="0.5">
      <circle cx="-190" cy="0" r="2"/>
      <circle cx="190" cy="0" r="2"/>
      <circle cx="0" cy="-190" r="2"/>
      <circle cx="0" cy="190" r="2"/>
    </g>
    
    <!-- Subtle scanning line animation -->
    <g stroke="#00ffff" stroke-width="1" opacity="0.3">
      <line x1="-100" y1="-20" x2="100" y2="-20">
        <animate attributeName="y1" values="-20;20;-20" dur="3s" repeatCount="indefinite"/>
        <animate attributeName="y2" values="-20;20;-20" dur="3s" repeatCount="indefinite"/>
        <animate attributeName="opacity" values="0.1;0.6;0.1" dur="3s" repeatCount="indefinite"/>
      </line>
    </g>
    
  </g>
  
  <!-- Subtle noise texture overlay -->
  <rect width="512" height="512" fill="url(#noisePattern)" opacity="0.05"/>
  
  <defs>
    <pattern id="noisePattern" patternUnits="userSpaceOnUse" width="4" height="4">
      <rect width="1" height="1" fill="#ffffff" opacity="0.1"/>
      <rect x="2" y="2" width="1" height="1" fill="#ffffff" opacity="0.1"/>
    </pattern>
  </defs>
  
</svg>